<mxfile host="app.diagrams.net" agent="Mozilla/5.0 (Windows NT 10.0; Win64; x64) AppleWebKit/537.36 (KHTML, like Gecko) Chrome/140.0.0.0 Safari/537.36" version="28.2.5">
  <diagram name="Page-1" id="pVRG_pXLG9i3rXOdkBZz">
    <mxGraphModel dx="1678" dy="2158" grid="1" gridSize="10" guides="1" tooltips="1" connect="1" arrows="1" fold="1" page="1" pageScale="1" pageWidth="827" pageHeight="1169" math="0" shadow="0">
      <root>
        <mxCell id="0" />
        <mxCell id="1" parent="0" />
        <mxCell id="nmvR4Zv8azfaLcohrpjC-2" value="" style="rounded=0;whiteSpace=wrap;html=1;fillColor=#d5e8d4;strokeColor=#82b366;" parent="1" vertex="1">
          <mxGeometry x="240" y="-410" width="580" height="1470" as="geometry" />
        </mxCell>
        <mxCell id="nmvR4Zv8azfaLcohrpjC-3" value="&lt;font style=&quot;color: light-dark(rgb(0, 0, 0), rgb(0, 0, 0));&quot;&gt;EcoRide&lt;/font&gt;" style="text;strokeColor=none;fillColor=none;html=1;fontSize=24;fontStyle=1;verticalAlign=middle;align=center;" parent="1" vertex="1">
          <mxGeometry x="240" y="-410" width="130" height="40" as="geometry" />
        </mxCell>
        <mxCell id="fVriKhXg8iUfFY-7rWz7-40" style="edgeStyle=none;curved=1;rounded=0;orthogonalLoop=1;jettySize=auto;html=1;fontSize=12;startSize=8;endSize=8;endArrow=none;endFill=0;" edge="1" parent="1" source="nmvR4Zv8azfaLcohrpjC-4" target="fVriKhXg8iUfFY-7rWz7-39">
          <mxGeometry relative="1" as="geometry" />
        </mxCell>
        <mxCell id="nmvR4Zv8azfaLcohrpjC-4" value="&lt;div&gt;Administrateur&lt;/div&gt;" style="shape=umlActor;verticalLabelPosition=bottom;verticalAlign=top;html=1;outlineConnect=0;" parent="1" vertex="1">
          <mxGeometry x="80" y="-320" width="30" height="60" as="geometry" />
        </mxCell>
        <mxCell id="fVriKhXg8iUfFY-7rWz7-23" style="edgeStyle=orthogonalEdgeStyle;rounded=0;orthogonalLoop=1;jettySize=auto;html=1;fontSize=12;startSize=8;endSize=8;endArrow=none;endFill=0;entryX=1;entryY=0;entryDx=0;entryDy=0;" edge="1" parent="1">
          <mxGeometry relative="1" as="geometry">
            <mxPoint x="532.4264068711927" y="519.9957287525378" as="targetPoint" />
            <mxPoint x="974.9411764705883" y="268.2800000000004" as="sourcePoint" />
            <Array as="points">
              <mxPoint x="975" y="540" />
              <mxPoint x="532" y="540" />
            </Array>
          </mxGeometry>
        </mxCell>
        <mxCell id="fVriKhXg8iUfFY-7rWz7-26" style="edgeStyle=none;curved=1;rounded=0;orthogonalLoop=1;jettySize=auto;html=1;fontSize=12;startSize=8;endSize=8;endArrow=none;endFill=0;entryX=0.938;entryY=0.231;entryDx=0;entryDy=0;entryPerimeter=0;" edge="1" parent="1" source="nmvR4Zv8azfaLcohrpjC-5" target="fVriKhXg8iUfFY-7rWz7-24">
          <mxGeometry relative="1" as="geometry" />
        </mxCell>
        <mxCell id="fVriKhXg8iUfFY-7rWz7-28" style="edgeStyle=none;curved=1;rounded=0;orthogonalLoop=1;jettySize=auto;html=1;entryX=1;entryY=0.5;entryDx=0;entryDy=0;fontSize=12;startSize=8;endSize=8;endArrow=none;endFill=0;" edge="1" parent="1" source="nmvR4Zv8azfaLcohrpjC-5" target="fVriKhXg8iUfFY-7rWz7-27">
          <mxGeometry relative="1" as="geometry" />
        </mxCell>
        <mxCell id="fVriKhXg8iUfFY-7rWz7-32" style="edgeStyle=none;curved=1;rounded=0;orthogonalLoop=1;jettySize=auto;html=1;entryX=1;entryY=0.5;entryDx=0;entryDy=0;fontSize=12;startSize=8;endSize=8;endArrow=none;endFill=0;" edge="1" parent="1" source="nmvR4Zv8azfaLcohrpjC-5" target="fVriKhXg8iUfFY-7rWz7-31">
          <mxGeometry relative="1" as="geometry" />
        </mxCell>
        <mxCell id="fVriKhXg8iUfFY-7rWz7-34" style="edgeStyle=none;curved=1;rounded=0;orthogonalLoop=1;jettySize=auto;html=1;entryX=1;entryY=0.5;entryDx=0;entryDy=0;fontSize=12;startSize=8;endSize=8;endArrow=none;endFill=0;" edge="1" parent="1" source="nmvR4Zv8azfaLcohrpjC-5" target="fVriKhXg8iUfFY-7rWz7-33">
          <mxGeometry relative="1" as="geometry" />
        </mxCell>
        <mxCell id="fVriKhXg8iUfFY-7rWz7-36" style="edgeStyle=none;curved=1;rounded=0;orthogonalLoop=1;jettySize=auto;html=1;entryX=1;entryY=0.5;entryDx=0;entryDy=0;fontSize=12;startSize=8;endSize=8;endArrow=none;endFill=0;" edge="1" parent="1" source="nmvR4Zv8azfaLcohrpjC-5" target="fVriKhXg8iUfFY-7rWz7-35">
          <mxGeometry relative="1" as="geometry" />
        </mxCell>
        <mxCell id="nmvR4Zv8azfaLcohrpjC-5" value="Utilisateur" style="shape=umlActor;verticalLabelPosition=bottom;verticalAlign=top;html=1;outlineConnect=0;" parent="1" vertex="1">
          <mxGeometry x="960" y="220" width="30" height="60" as="geometry" />
        </mxCell>
        <mxCell id="fVriKhXg8iUfFY-7rWz7-38" style="edgeStyle=none;curved=1;rounded=0;orthogonalLoop=1;jettySize=auto;html=1;fontSize=12;startSize=8;endSize=8;endArrow=none;endFill=0;" edge="1" parent="1" source="nmvR4Zv8azfaLcohrpjC-8" target="fVriKhXg8iUfFY-7rWz7-37">
          <mxGeometry relative="1" as="geometry" />
        </mxCell>
        <mxCell id="nmvR4Zv8azfaLcohrpjC-8" value="Employe" style="shape=umlActor;verticalLabelPosition=bottom;verticalAlign=top;html=1;outlineConnect=0;" parent="1" vertex="1">
          <mxGeometry x="70" y="-120" width="30" height="60" as="geometry" />
        </mxCell>
        <mxCell id="fVriKhXg8iUfFY-7rWz7-1" style="edgeStyle=none;curved=1;rounded=0;orthogonalLoop=1;jettySize=auto;html=1;fontSize=12;startSize=8;endSize=8;endArrow=none;endFill=0;" edge="1" parent="1" source="nmvR4Zv8azfaLcohrpjC-9" target="nmvR4Zv8azfaLcohrpjC-11">
          <mxGeometry relative="1" as="geometry" />
        </mxCell>
        <mxCell id="fVriKhXg8iUfFY-7rWz7-5" style="edgeStyle=none;curved=1;rounded=0;orthogonalLoop=1;jettySize=auto;html=1;fontSize=12;endArrow=none;endFill=0;" edge="1" parent="1" source="nmvR4Zv8azfaLcohrpjC-9" target="fVriKhXg8iUfFY-7rWz7-4">
          <mxGeometry relative="1" as="geometry" />
        </mxCell>
        <mxCell id="fVriKhXg8iUfFY-7rWz7-9" style="edgeStyle=none;curved=1;rounded=0;orthogonalLoop=1;jettySize=auto;html=1;entryX=0;entryY=0.5;entryDx=0;entryDy=0;fontSize=12;startSize=8;endSize=8;endArrow=none;endFill=0;" edge="1" parent="1" source="nmvR4Zv8azfaLcohrpjC-9" target="fVriKhXg8iUfFY-7rWz7-6">
          <mxGeometry relative="1" as="geometry" />
        </mxCell>
        <mxCell id="fVriKhXg8iUfFY-7rWz7-17" style="edgeStyle=none;curved=1;rounded=0;orthogonalLoop=1;jettySize=auto;html=1;entryX=0;entryY=0.5;entryDx=0;entryDy=0;fontSize=12;startSize=8;endSize=8;endArrow=none;endFill=0;" edge="1" parent="1" source="nmvR4Zv8azfaLcohrpjC-9" target="fVriKhXg8iUfFY-7rWz7-16">
          <mxGeometry relative="1" as="geometry" />
        </mxCell>
        <mxCell id="fVriKhXg8iUfFY-7rWz7-19" style="edgeStyle=none;curved=1;rounded=0;orthogonalLoop=1;jettySize=auto;html=1;entryX=0;entryY=0.5;entryDx=0;entryDy=0;fontSize=12;startSize=8;endSize=8;endArrow=none;endFill=0;" edge="1" parent="1" source="nmvR4Zv8azfaLcohrpjC-9" target="fVriKhXg8iUfFY-7rWz7-18">
          <mxGeometry relative="1" as="geometry" />
        </mxCell>
        <mxCell id="fVriKhXg8iUfFY-7rWz7-21" style="edgeStyle=none;curved=1;rounded=0;orthogonalLoop=1;jettySize=auto;html=1;entryX=0;entryY=0.5;entryDx=0;entryDy=0;fontSize=12;startSize=8;endSize=8;endArrow=none;endFill=0;" edge="1" parent="1" source="nmvR4Zv8azfaLcohrpjC-9" target="fVriKhXg8iUfFY-7rWz7-20">
          <mxGeometry relative="1" as="geometry" />
        </mxCell>
        <mxCell id="fVriKhXg8iUfFY-7rWz7-25" style="edgeStyle=none;curved=1;rounded=0;orthogonalLoop=1;jettySize=auto;html=1;fontSize=12;startSize=8;endSize=8;entryX=0;entryY=0.5;entryDx=0;entryDy=0;endArrow=none;endFill=0;" edge="1" parent="1" source="nmvR4Zv8azfaLcohrpjC-9" target="fVriKhXg8iUfFY-7rWz7-24">
          <mxGeometry relative="1" as="geometry">
            <mxPoint x="210" y="660" as="targetPoint" />
          </mxGeometry>
        </mxCell>
        <mxCell id="nmvR4Zv8azfaLcohrpjC-9" value="Visiteur" style="shape=umlActor;verticalLabelPosition=bottom;verticalAlign=top;html=1;outlineConnect=0;" parent="1" vertex="1">
          <mxGeometry x="70" y="730" width="30" height="60" as="geometry" />
        </mxCell>
        <mxCell id="nmvR4Zv8azfaLcohrpjC-11" value="CrÃ©ation de compte" style="ellipse;whiteSpace=wrap;html=1;" parent="1" vertex="1">
          <mxGeometry x="430" y="970" width="120" height="80" as="geometry" />
        </mxCell>
        <mxCell id="fVriKhXg8iUfFY-7rWz7-4" value="Page d&#39;accueil" style="ellipse;whiteSpace=wrap;html=1;" vertex="1" parent="1">
          <mxGeometry x="430" y="880" width="120" height="80" as="geometry" />
        </mxCell>
        <mxCell id="fVriKhXg8iUfFY-7rWz7-6" value="Vue des covoiturages" style="ellipse;whiteSpace=wrap;html=1;" vertex="1" parent="1">
          <mxGeometry x="430" y="790" width="120" height="80" as="geometry" />
        </mxCell>
        <mxCell id="fVriKhXg8iUfFY-7rWz7-14" style="edgeStyle=none;curved=1;rounded=0;orthogonalLoop=1;jettySize=auto;html=1;fontSize=12;startSize=8;endSize=8;endArrow=classicThin;endFill=1;dashed=1;" edge="1" parent="1" source="fVriKhXg8iUfFY-7rWz7-7" target="fVriKhXg8iUfFY-7rWz7-6">
          <mxGeometry relative="1" as="geometry" />
        </mxCell>
        <mxCell id="fVriKhXg8iUfFY-7rWz7-15" value="&amp;lt;&amp;lt;include&amp;gt;&amp;gt;" style="edgeLabel;html=1;align=center;verticalAlign=middle;resizable=0;points=[];fontSize=12;" vertex="1" connectable="0" parent="fVriKhXg8iUfFY-7rWz7-14">
          <mxGeometry x="0.0448" relative="1" as="geometry">
            <mxPoint x="8" as="offset" />
          </mxGeometry>
        </mxCell>
        <mxCell id="fVriKhXg8iUfFY-7rWz7-7" value="Remplir un formulaire" style="ellipse;whiteSpace=wrap;html=1;" vertex="1" parent="1">
          <mxGeometry x="680" y="790" width="120" height="80" as="geometry" />
        </mxCell>
        <mxCell id="fVriKhXg8iUfFY-7rWz7-16" value="Menu de l&#39;application" style="ellipse;whiteSpace=wrap;html=1;" vertex="1" parent="1">
          <mxGeometry x="430" y="700" width="120" height="80" as="geometry" />
        </mxCell>
        <mxCell id="fVriKhXg8iUfFY-7rWz7-18" value="Filtres des covoiturages" style="ellipse;whiteSpace=wrap;html=1;" vertex="1" parent="1">
          <mxGeometry x="430" y="610" width="120" height="80" as="geometry" />
        </mxCell>
        <mxCell id="fVriKhXg8iUfFY-7rWz7-20" value="Vue dÃ©taillÃ©e d&#39;un covoiturage" style="ellipse;whiteSpace=wrap;html=1;" vertex="1" parent="1">
          <mxGeometry x="430" y="520" width="120" height="80" as="geometry" />
        </mxCell>
        <mxCell id="fVriKhXg8iUfFY-7rWz7-24" value="Participer Ã  un covoiturage" style="ellipse;whiteSpace=wrap;html=1;" vertex="1" parent="1">
          <mxGeometry x="430" y="420" width="120" height="80" as="geometry" />
        </mxCell>
        <mxCell id="fVriKhXg8iUfFY-7rWz7-27" value="Espace utilisateur" style="ellipse;whiteSpace=wrap;html=1;" vertex="1" parent="1">
          <mxGeometry x="550" y="300" width="120" height="80" as="geometry" />
        </mxCell>
        <mxCell id="fVriKhXg8iUfFY-7rWz7-31" value="Saisir un voyage" style="ellipse;whiteSpace=wrap;html=1;" vertex="1" parent="1">
          <mxGeometry x="550" y="210" width="120" height="80" as="geometry" />
        </mxCell>
        <mxCell id="fVriKhXg8iUfFY-7rWz7-33" value="Historique des covoiturages" style="ellipse;whiteSpace=wrap;html=1;" vertex="1" parent="1">
          <mxGeometry x="550" y="120" width="120" height="80" as="geometry" />
        </mxCell>
        <mxCell id="fVriKhXg8iUfFY-7rWz7-35" value="DÃ©marrer et arrÃªter un covoiturage" style="ellipse;whiteSpace=wrap;html=1;" vertex="1" parent="1">
          <mxGeometry x="550" y="30" width="120" height="80" as="geometry" />
        </mxCell>
        <mxCell id="fVriKhXg8iUfFY-7rWz7-37" value="Espace employÃ©" style="ellipse;whiteSpace=wrap;html=1;" vertex="1" parent="1">
          <mxGeometry x="300" y="-130" width="120" height="80" as="geometry" />
        </mxCell>
        <mxCell id="fVriKhXg8iUfFY-7rWz7-43" style="edgeStyle=none;curved=1;rounded=0;orthogonalLoop=1;jettySize=auto;html=1;entryX=0;entryY=0.5;entryDx=0;entryDy=0;fontSize=12;startSize=8;endSize=8;endArrow=classicThin;endFill=1;dashed=1;exitX=1;exitY=0.5;exitDx=0;exitDy=0;" edge="1" parent="1" source="fVriKhXg8iUfFY-7rWz7-39" target="fVriKhXg8iUfFY-7rWz7-41">
          <mxGeometry relative="1" as="geometry" />
        </mxCell>
        <mxCell id="fVriKhXg8iUfFY-7rWz7-45" value="&amp;lt;&amp;lt;extend&amp;gt;&amp;gt;" style="edgeLabel;html=1;align=center;verticalAlign=middle;resizable=0;points=[];fontSize=12;" vertex="1" connectable="0" parent="fVriKhXg8iUfFY-7rWz7-43">
          <mxGeometry x="0.0732" relative="1" as="geometry">
            <mxPoint as="offset" />
          </mxGeometry>
        </mxCell>
        <mxCell id="fVriKhXg8iUfFY-7rWz7-44" style="edgeStyle=none;curved=1;rounded=0;orthogonalLoop=1;jettySize=auto;html=1;entryX=0;entryY=0.5;entryDx=0;entryDy=0;fontSize=12;startSize=8;endSize=8;endArrow=classicThin;endFill=1;dashed=1;exitX=1;exitY=0.5;exitDx=0;exitDy=0;" edge="1" parent="1" source="fVriKhXg8iUfFY-7rWz7-39" target="fVriKhXg8iUfFY-7rWz7-42">
          <mxGeometry relative="1" as="geometry" />
        </mxCell>
        <mxCell id="fVriKhXg8iUfFY-7rWz7-46" value="&amp;lt;&amp;lt;extend&amp;gt;&amp;gt;" style="edgeLabel;html=1;align=center;verticalAlign=middle;resizable=0;points=[];fontSize=12;" vertex="1" connectable="0" parent="fVriKhXg8iUfFY-7rWz7-44">
          <mxGeometry x="0.016" relative="1" as="geometry">
            <mxPoint as="offset" />
          </mxGeometry>
        </mxCell>
        <mxCell id="fVriKhXg8iUfFY-7rWz7-39" value="Espace administrateur" style="ellipse;whiteSpace=wrap;html=1;" vertex="1" parent="1">
          <mxGeometry x="300" y="-330" width="120" height="80" as="geometry" />
        </mxCell>
        <mxCell id="fVriKhXg8iUfFY-7rWz7-41" value="Concevoir les comptes des employÃ©s" style="ellipse;whiteSpace=wrap;html=1;" vertex="1" parent="1">
          <mxGeometry x="610" y="-375" width="120" height="80" as="geometry" />
        </mxCell>
        <mxCell id="fVriKhXg8iUfFY-7rWz7-42" value="Suspendre compte employÃ© / utilisateur" style="ellipse;whiteSpace=wrap;html=1;" vertex="1" parent="1">
          <mxGeometry x="610" y="-285" width="120" height="80" as="geometry" />
        </mxCell>
        <mxCell id="fVriKhXg8iUfFY-7rWz7-48" style="edgeStyle=none;curved=1;rounded=0;orthogonalLoop=1;jettySize=auto;html=1;fontSize=12;startSize=8;endSize=8;endArrow=classicThin;endFill=1;dashed=1;" edge="1" parent="1" source="fVriKhXg8iUfFY-7rWz7-47" target="fVriKhXg8iUfFY-7rWz7-20">
          <mxGeometry relative="1" as="geometry" />
        </mxCell>
        <mxCell id="fVriKhXg8iUfFY-7rWz7-49" value="&amp;lt;&amp;lt;include&amp;gt;&amp;gt;" style="edgeLabel;html=1;align=center;verticalAlign=middle;resizable=0;points=[];fontSize=12;" vertex="1" connectable="0" parent="fVriKhXg8iUfFY-7rWz7-48">
          <mxGeometry x="0.1638" y="-3" relative="1" as="geometry">
            <mxPoint x="15" y="3" as="offset" />
          </mxGeometry>
        </mxCell>
        <mxCell id="fVriKhXg8iUfFY-7rWz7-47" value="Click sur le bouton dÃ©tail" style="ellipse;whiteSpace=wrap;html=1;" vertex="1" parent="1">
          <mxGeometry x="680" y="585" width="120" height="80" as="geometry" />
        </mxCell>
        <mxCell id="fVriKhXg8iUfFY-7rWz7-51" value="Se connecter / crÃ©er un compte si non utilisateur" style="ellipse;whiteSpace=wrap;html=1;" vertex="1" parent="1">
          <mxGeometry x="680" y="420" width="120" height="80" as="geometry" />
        </mxCell>
        <mxCell id="fVriKhXg8iUfFY-7rWz7-52" style="edgeStyle=none;curved=1;rounded=0;orthogonalLoop=1;jettySize=auto;html=1;fontSize=12;startSize=8;endSize=8;endArrow=classicThin;endFill=1;dashed=1;" edge="1" parent="1">
          <mxGeometry relative="1" as="geometry">
            <mxPoint x="680" y="459.40999999999997" as="sourcePoint" />
            <mxPoint x="550" y="459.40999999999997" as="targetPoint" />
          </mxGeometry>
        </mxCell>
        <mxCell id="fVriKhXg8iUfFY-7rWz7-53" value="&amp;lt;&amp;lt;include&amp;gt;&amp;gt;" style="edgeLabel;html=1;align=center;verticalAlign=middle;resizable=0;points=[];fontSize=12;" vertex="1" connectable="0" parent="fVriKhXg8iUfFY-7rWz7-52">
          <mxGeometry x="0.1638" y="-3" relative="1" as="geometry">
            <mxPoint x="15" y="3" as="offset" />
          </mxGeometry>
        </mxCell>
        <mxCell id="fVriKhXg8iUfFY-7rWz7-55" value="Valider / refuser les avis sur les chauffeurs" style="ellipse;whiteSpace=wrap;html=1;" vertex="1" parent="1">
          <mxGeometry x="620" y="-130" width="120" height="80" as="geometry" />
        </mxCell>
        <mxCell id="fVriKhXg8iUfFY-7rWz7-56" style="edgeStyle=none;curved=1;rounded=0;orthogonalLoop=1;jettySize=auto;html=1;entryX=0;entryY=0.5;entryDx=0;entryDy=0;fontSize=12;startSize=8;endSize=8;endArrow=classicThin;endFill=1;dashed=1;exitX=1;exitY=0.5;exitDx=0;exitDy=0;" edge="1" parent="1" source="fVriKhXg8iUfFY-7rWz7-37">
          <mxGeometry relative="1" as="geometry">
            <mxPoint x="430" y="-140" as="sourcePoint" />
            <mxPoint x="620" y="-95" as="targetPoint" />
          </mxGeometry>
        </mxCell>
        <mxCell id="fVriKhXg8iUfFY-7rWz7-57" value="&amp;lt;&amp;lt;extend&amp;gt;&amp;gt;" style="edgeLabel;html=1;align=center;verticalAlign=middle;resizable=0;points=[];fontSize=12;" vertex="1" connectable="0" parent="fVriKhXg8iUfFY-7rWz7-56">
          <mxGeometry x="0.016" relative="1" as="geometry">
            <mxPoint as="offset" />
          </mxGeometry>
        </mxCell>
      </root>
    </mxGraphModel>
  </diagram>
</mxfile>
